<svg xmlns="http://www.w3.org/2000/svg" width="44" height="44" viewBox="0 0 44 44">
  <!-- Update available: octagon hub + down arrow in center -->

  <!-- Spokes -->
  <line x1="22" y1="22" x2="22" y2="8" stroke="white" stroke-width="1.2" stroke-linecap="round"/>
  <line x1="22" y1="22" x2="32" y2="12" stroke="white" stroke-width="1.2" stroke-linecap="round"/>
  <line x1="22" y1="22" x2="36" y2="22" stroke="white" stroke-width="1.2" stroke-linecap="round"/>
  <line x1="22" y1="22" x2="32" y2="32" stroke="white" stroke-width="1.2" stroke-linecap="round"/>
  <line x1="22" y1="22" x2="22" y2="36" stroke="white" stroke-width="1.2" stroke-linecap="round"/>
  <line x1="22" y1="22" x2="12" y2="32" stroke="white" stroke-width="1.2" stroke-linecap="round"/>
  <line x1="22" y1="22" x2="8" y2="22" stroke="white" stroke-width="1.2" stroke-linecap="round"/>
  <line x1="22" y1="22" x2="12" y2="12" stroke="white" stroke-width="1.2" stroke-linecap="round"/>

  <!-- Outer nodes -->
  <circle cx="22" cy="8" r="2" fill="white"/>
  <circle cx="32" cy="12" r="2" fill="white"/>
  <circle cx="36" cy="22" r="2" fill="white"/>
  <circle cx="32" cy="32" r="2" fill="white"/>
  <circle cx="22" cy="36" r="2" fill="white"/>
  <circle cx="12" cy="32" r="2" fill="white"/>
  <circle cx="8" cy="22" r="2" fill="white"/>
  <circle cx="12" cy="12" r="2" fill="white"/>

  <!-- Down arrow replacing center dot -->
  <line x1="22" y1="17" x2="22" y2="27" stroke="white" stroke-width="2.2" stroke-linecap="round"/>
  <polyline points="18,24 22,28 26,24" fill="none" stroke="white" stroke-width="2.2" stroke-linecap="round" stroke-linejoin="round"/>
</svg>
